# xmcd CD database file
#
# Track frame offsets:
#	150
#	12617
#	19259
#	31411
#	42577
#	52904
#	65202
#	76594
#	86596
#	100489
#	110655
#	122089
#	133298
#	147068
#	154327
#	167941
#	179538
#	190683
#	203669
#	214350
#
# Disc length: 2931 seconds
#
# Revision: 1
# Processed by: cddbd v1.5.2PL0 Copyright (c) Steve Scherf et al.
# Submitted via: CDex 1.70beta2
#
DISCID=290b7114
DTITLE=Various Artist - Route 66 -The USA Music Story - CD1
DYEAR=2007
DGENRE=Country
TTITLE0=Johnny Cash - Folsom Prison Blues
TTITLE1=Waylon Jennings - It's so easy
TTITLE2=Lynn Anderson - Stand by your man
TTITLE3=Faron Young - Your cheating heart
TTITLE4=Patsy Cline - Three cigarettes in the ashtray
TTITLE5=Franky Laine - High noon
TTITLE6=Kenny Rogers - Me and Bobby McGee
TTITLE7=Mickey Gilley - Lonely Wine
TTITLE8=Tex Ritter - Fool's paradise
TTITLE9=Dave Dudley - Six days on the road
TTITLE10=Don Gibson - I can't stop loving you
TTITLE11=Kitty Wells - It wasn't god who made honky tonks angels
TTITLE12=Jonny Paycheck - Someone to give my love to
TTITLE13=Merley Haggard - I'm a lonesome fugitive
TTITLE14=Ernest Tubb and Red Foley - Good night Irene
TTITLE15=Donna Fargo - The happiest girl in the whole USA
TTITLE16=Jonny Tillotson - Raining in my heart
TTITLE17=Hank Williams and The Drifting Cowboys - Jambalaya
TTITLE18=Ferlin Husky - Wings of a dove
TTITLE19=Willie Nelson - The ghost
EXTD=YEAR: 2007
EXTT0=
EXTT1=
EXTT2=
EXTT3=
EXTT4=
EXTT5=
EXTT6=
EXTT7=
EXTT8=
EXTT9=
EXTT10=
EXTT11=
EXTT12=
EXTT13=
EXTT14=
EXTT15=
EXTT16=
EXTT17=
EXTT18=
EXTT19=
PLAYORDER=
